<?xml version="1.0" encoding="UTF-8" standalone="no"?>
<!-- Created with Inkscape (http://www.inkscape.org/) -->

<svg
   xmlns:dc="http://purl.org/dc/elements/1.1/"
   xmlns:cc="http://creativecommons.org/ns#"
   xmlns:rdf="http://www.w3.org/1999/02/22-rdf-syntax-ns#"
   xmlns:svg="http://www.w3.org/2000/svg"
   xmlns="http://www.w3.org/2000/svg"
   xmlns:sodipodi="http://sodipodi.sourceforge.net/DTD/sodipodi-0.dtd"
   xmlns:inkscape="http://www.inkscape.org/namespaces/inkscape"
   width="2000"
   height="1500"
   id="svg2"
   version="1.1"
   inkscape:version="0.48.5 r10040"
   sodipodi:docname="Documento nuevo 1">
  <defs
     id="defs4" />
  <sodipodi:namedview
     id="base"
     pagecolor="#ffffff"
     bordercolor="#666666"
     borderopacity="1.0"
     inkscape:pageopacity="0.0"
     inkscape:pageshadow="2"
     inkscape:zoom="0.49497475"
     inkscape:cx="335.72641"
     inkscape:cy="525.6237"
     inkscape:document-units="px"
     inkscape:current-layer="layer1"
     showgrid="true"
     inkscape:window-width="1366"
     inkscape:window-height="705"
     inkscape:window-x="-8"
     inkscape:window-y="-8"
     inkscape:window-maximized="1">
    <inkscape:grid
       type="xygrid"
       id="grid2985"
       empspacing="5"
       visible="false"
       enabled="true"
       snapvisiblegridlinesonly="true"
       spacingx="10px"
       spacingy="10px"
       dotted="true" />
  </sodipodi:namedview>
  <metadata
     id="metadata7">
    <rdf:RDF>
      <cc:Work
         rdf:about="">
        <dc:format>image/svg+xml</dc:format>
        <dc:type
           rdf:resource="http://purl.org/dc/dcmitype/StillImage" />
        <dc:title></dc:title>
      </cc:Work>
    </rdf:RDF>
  </metadata>
  <g
     inkscape:label="Capa 1"
     inkscape:groupmode="layer"
     id="layer1"
     transform="translate(0,447.63782)">
    <path
       style="fill:#6d4c41;fill-opacity:1;stroke:none"
       d="m 380,362.36218 0,-130 -60,0 0,130 z"
       id="path3767"
       inkscape:connector-curvature="0" />
    <path
       style="fill:#6d4c41;fill-opacity:1;stroke:none"
       d="m 190,342.36218 320,0 0,220 -320,0 z"
       id="path3759"
       inkscape:connector-curvature="0" />
    <path
       inkscape:connector-curvature="0"
       id="path3810"
       d="m 840,482.36218 0,-70 -360,0 0,70 z"
       style="fill:#6d4c41;fill-opacity:1;stroke:none" />
    <path
       style="fill:#4e342e;fill-opacity:1;stroke:none;stroke-width:1px;stroke-linecap:butt;stroke-linejoin:miter;stroke-opacity:1"
       d="m 200,352.36218 0,-50 130,0 0,50 z"
       id="path2987"
       inkscape:connector-curvature="0" />
    <path
       style="fill:#8d6e63;fill-opacity:1;stroke:none;stroke-width:1px;stroke-linecap:butt;stroke-linejoin:miter;stroke-opacity:1"
       d="m 200,302.36218 0,-20 130,0 0,20 z"
       id="path2989"
       inkscape:connector-curvature="0" />
    <path
       inkscape:connector-curvature="0"
       id="path3761"
       d="m 370,352.36218 0,-60 130,0 0,60 z"
       style="fill:#4e342e;fill-opacity:1;stroke:none" />
    <path
       inkscape:connector-curvature="0"
       id="path3763"
       d="m 370,302.36218 0,-20 140,0 0,20 z"
       style="fill:#8d6e63;fill-opacity:1;stroke:none" />
    <path
       style="fill:#8d6e63;stroke:none;stroke-width:1px;stroke-linecap:butt;stroke-linejoin:miter;stroke-opacity:1;fill-opacity:1"
       d="m 200,730 -20,0 0,270 20,0 z"
       id="path3769"
       inkscape:connector-curvature="0"
       transform="translate(0,-447.63782)" />
    <path
       style="fill:#8d6e63;fill-opacity:1;stroke:none"
       d="m 500,282.36218 20,0 0,100 -20,0 z"
       id="path3771"
       inkscape:connector-curvature="0" />
    <path
       inkscape:connector-curvature="0"
       id="path3785"
       d="m 180,622.36218 0,-50 340,0 0,50 z"
       style="fill:#4e342e;fill-opacity:1;stroke:none" />
    <path
       inkscape:connector-curvature="0"
       id="path3789"
       d="m 180,572.36218 0,-20 340,0 0,20 z"
       style="fill:#8d6e63;fill-opacity:1;stroke:none" />
    <path
       style="fill:#4e342e;fill-opacity:1;stroke:none"
       d="m 500,432.36218 0,-50 340,0 0,50 z"
       id="path3791"
       inkscape:connector-curvature="0" />
    <path
       inkscape:connector-curvature="0"
       id="path3802"
       d="m 520,522.36218 0,-50 320,0 0,50 z"
       style="fill:#4e342e;fill-opacity:1;stroke:none" />
    <path
       inkscape:connector-curvature="0"
       id="path3804"
       d="m 500,452.36218 20,0 0,100 -20,0 z"
       style="fill:#8d6e63;fill-opacity:1;stroke:none" />
    <path
       style="fill:#8d6e63;fill-opacity:1;stroke:none"
       d="m 520,472.36218 0,-20 320,0 0,20 z"
       id="path3806"
       inkscape:connector-curvature="0" />
    <path
       inkscape:connector-curvature="0"
       id="path3808"
       d="m 510,382.36218 0,-20 330,0 0,20 z"
       style="fill:#8d6e63;fill-opacity:1;stroke:none" />
    <path
       inkscape:connector-curvature="0"
       id="path3812"
       d="m 400,242.36218 0,-90 -100,0 0,90 z"
       style="fill:#6d4c41;fill-opacity:1;stroke:none" />
    <path
       inkscape:connector-curvature="0"
       id="path3814"
       d="m 370,242.36218 20,0 0,50 -20,0 z"
       style="fill:#8d6e63;fill-opacity:1;stroke:none" />
    <path
       style="fill:#8d6e63;fill-opacity:1;stroke:none"
       d="m 390,102.36218 20,0 0,160 -20,0 z"
       id="path3816"
       inkscape:connector-curvature="0"
       inkscape:transform-center-x="30"
       inkscape:transform-center-y="176.00001" />
    <path
       inkscape:transform-center-y="176.00001"
       inkscape:transform-center-x="30"
       inkscape:connector-curvature="0"
       id="path3818"
       d="m 290,102.36218 20,0 0,160 -20,0 z"
       style="fill:#8d6e63;fill-opacity:1;stroke:none" />
    <path
       inkscape:connector-curvature="0"
       id="path3820"
       d="m 290,112.36218 0,-20 120,0 0,20 z"
       style="fill:#8d6e63;fill-opacity:1;stroke:none" />
    <path
       style="fill:#8d6e63;fill-opacity:1;stroke:none"
       d="m 310,242.36218 20,0 0,60 -20,0 z"
       id="path3822"
       inkscape:connector-curvature="0"
       inkscape:transform-center-x="30"
       inkscape:transform-center-y="66.000005" />
    <path
       inkscape:transform-center-y="22.000002"
       inkscape:transform-center-x="45.000002"
       inkscape:connector-curvature="0"
       id="path3824"
       d="m 300,242.36218 30,0 0,20 -30,0 z"
       style="fill:#8d6e63;fill-opacity:1;stroke:none" />
    <path
       style="fill:#8d6e63;fill-opacity:1;stroke:none"
       d="m 370,242.36218 30,0 0,20 -30,0 z"
       id="path3826"
       inkscape:connector-curvature="0"
       inkscape:transform-center-x="45.000002"
       inkscape:transform-center-y="22.000002" />
    <path
       style="fill:#4e342e;fill-opacity:1;stroke:none"
       d="m 390,282.36218 0,-20 20,0 0,20 z"
       id="path3828"
       inkscape:connector-curvature="0" />
    <path
       inkscape:connector-curvature="0"
       id="path3830"
       d="m 290,282.36218 0,-20 20,0 0,20 z"
       style="fill:#4e342e;fill-opacity:1;stroke:none" />
    <path
       inkscape:connector-curvature="0"
       id="path3834"
       d="m 310,162.36218 0,-50 80,0 0,50 z"
       style="fill:#4e342e;fill-opacity:1;stroke:none" />
    <rect
       style="color:#000000;fill:#fafafa;fill-opacity:1;fill-rule:nonzero;stroke:none;stroke-width:0;marker:none;visibility:visible;display:inline;overflow:visible;enable-background:accumulate"
       id="rect3840"
       width="100"
       height="100"
       x="800"
       y="500"
       transform="translate(0,-447.63782)" />
  </g>
</svg>
